<?xml version="1.0" encoding="UTF-8" standalone="no"?>
<svg
   xmlns:i="http://ns.adobe.com/AdobeIllustrator/10.0/"
   xmlns:dc="http://purl.org/dc/elements/1.1/"
   xmlns:cc="http://creativecommons.org/ns#"
   xmlns:rdf="http://www.w3.org/1999/02/22-rdf-syntax-ns#"
   xmlns:svg="http://www.w3.org/2000/svg"
   xmlns="http://www.w3.org/2000/svg"
   xmlns:sodipodi="http://sodipodi.sourceforge.net/DTD/sodipodi-0.dtd"
   xmlns:inkscape="http://www.inkscape.org/namespaces/inkscape"
   width="100"
   height="100"
   viewBox="0 0 100 100"
   version="1.1"
   id="svg22"
   sodipodi:docname="a-man.svg"
   inkscape:version="0.92.3 (2405546, 2018-03-11)"
   inkscape:export-filename="/home/kai/Development/proceed/docs/static/images/persons/a-man.png"
   inkscape:export-xdpi="491.51999"
   inkscape:export-ydpi="491.51999">
  <metadata
     id="metadata28">
    <rdf:RDF>
      <cc:Work
         rdf:about="">
        <dc:format>image/svg+xml</dc:format>
        <dc:type
           rdf:resource="http://purl.org/dc/dcmitype/StillImage" />
        <dc:title></dc:title>
      </cc:Work>
    </rdf:RDF>
  </metadata>
  <defs
     id="defs26" />
  <sodipodi:namedview
     pagecolor="#d0d1d2"
     bordercolor="#666666"
     borderopacity="1"
     objecttolerance="10"
     gridtolerance="10"
     guidetolerance="10"
     inkscape:pageopacity="1"
     inkscape:pageshadow="2"
     inkscape:window-width="640"
     inkscape:window-height="480"
     id="namedview24"
     showgrid="false"
     inkscape:zoom="6.675088"
     inkscape:cx="60.640871"
     inkscape:cy="42.11055"
     inkscape:current-layer="svg22"
     inkscape:pagecheckerboard="true" />
  <g
     id="g20"
     transform="matrix(1.5214911,0,0,1.5214911,-26.09224,-26.087991)">
    <g
       transform="matrix(0.69,0,0,0.69,15.5,15.5)"
       style="fill:#000000"
       id="g18">
      <svg
         version="1.1"
         x="0px"
         y="0px"
         viewBox="0 0 100 100"
         style="fill:#000000"
         xml:space="preserve"
         id="svg16"
         width="100%"
         height="100%"><g
           id="g14"><g
             i:extraneous="self"
             id="g12"><g
               id="g10"><circle
                 cx="42"
                 cy="35.900002"
                 r="3.8"
                 id="circle2" /><circle
                 cx="58"
                 cy="35.900002"
                 r="3.8"
                 id="circle4" /><path
                 d="m 50,53.6 c 3.8,0 7.4,-1.8 9.2,-4.6 0.7,-1 0.4,-2.4 -0.6,-3 -1,-0.7 -2.4,-0.4 -3,0.6 -1.1,1.6 -3.2,2.7 -5.6,2.7 -2.4,0 -4.5,-1 -5.6,-2.7 -0.7,-1 -2,-1.3 -3,-0.6 -1,0.7 -1.3,2 -0.6,3 1.8,2.8 5.4,4.6 9.2,4.6 z"
                 id="path6"
                 inkscape:connector-curvature="0" /><path
                 d="m 72.3,66.6 h -9.1 l -1,-3.8 C 68.9,58 72.9,52.3 74,46 77.7,45.2 79.5,42.6 79.5,38 79.5,34.5 78.7,32.1 77,30.6 76.3,30 75.2,29.3 73.6,29.1 73.7,26.6 73.6,23.6 73.4,20 73.3,18.1 73,16.5 72.5,15.1 73.1,12.3 73.4,9.2 72.9,6.8 72.7,5.9 71.7,5.4 70.9,5.7 70.4,5.9 69.9,6 69.4,6.2 69.5,5.4 69.5,4.6 69.5,3.9 69.4,2.9 68.3,2.3 67.4,2.7 63.3,4.1 57.5,5.5 50,5.5 37.7,5.5 27.7,6.1 26.7,20 c -0.2,3.7 -0.3,6.6 -0.2,9.1 -1.6,0.2 -2.8,0.8 -3.5,1.5 -1.7,1.5 -2.5,3.9 -2.5,7.4 0,4.6 1.8,7.2 5.5,8 1,6.2 5.1,12 11.8,16.8 l -1,3.8 h -9.1 c -9,0 -16.2,7.3 -16.2,16.2 v 8.8 c 0,3.2 2.6,5.9 5.8,5.9 h 65.4 c 3.2,0 5.8,-2.6 5.8,-5.9 V 82.8 C 88.5,73.9 81.3,66.6 72.3,66.6 Z M 30.2,44.4 C 30.1,43.1 29,42 27.7,41.9 26.1,41.7 24.9,41.6 24.9,38 c 0,-2.8 0.7,-3.9 1.1,-4.2 0.1,-0.1 0.5,-0.4 1.3,-0.4 0.1,1.3 0.3,2.6 0.4,3.3 0.4,1.5 4.2,1.4 4.4,0.1 0.2,-1.1 -0.7,-8.4 2.8,-14.9 3.6,1.5 9,2.5 15.1,2.5 6.1,0 11.5,-1 15.1,-2.5 3.5,6.5 2.6,13.8 2.8,14.9 0.2,1.3 4.1,1.4 4.4,-0.1 0.2,-0.7 0.3,-1.9 0.4,-3.3 0.8,0 1.1,0.3 1.3,0.4 0.4,0.4 1.1,1.4 1.1,4.2 0,3.6 -1.2,3.7 -2.8,3.9 C 71,42 69.9,43.1 69.8,44.4 69.2,50 65.7,55 59.4,59.5 53.8,63.4 46.1,63.4 40.5,59.5 34.3,55 30.8,49.9 30.2,44.4 Z M 58.1,73.7 52.3,78 c -1.4,1 -3.3,1 -4.7,0 L 41.8,73.7 C 40.5,72.7 40,71.1 40.4,69.6 L 41.6,65 c 2.6,1.1 5.4,1.8 8.3,1.8 2.9,0 5.7,-0.6 8.3,-1.8 l 1.2,4.6 c 0.5,1.5 0,3.1 -1.3,4.1 z m 26.1,17.9 c 0,0.8 -0.7,1.5 -1.5,1.5 H 17.3 c -0.8,0 -1.5,-0.7 -1.5,-1.5 v -8.8 c 0,-6.6 5.3,-11.9 11.9,-11.9 H 36 c 0.1,2.4 1.3,4.7 3.3,6.2 l 5.8,4.3 c 1.5,1.1 3.2,1.6 4.9,1.6 1.7,0 3.5,-0.5 4.9,-1.6 l 5.8,-4.3 c 2,-1.5 3.2,-3.8 3.3,-6.2 h 8.3 c 6.6,0 11.9,5.3 11.9,11.9 z"
                 id="path8"
                 inkscape:connector-curvature="0" /></g></g></g></svg>    </g>
  </g>
</svg>
