<?xml version="1.0" encoding="UTF-8" standalone="no"?>
<svg
   xmlns:i="http://ns.adobe.com/AdobeIllustrator/10.0/"
   xmlns:dc="http://purl.org/dc/elements/1.1/"
   xmlns:cc="http://creativecommons.org/ns#"
   xmlns:rdf="http://www.w3.org/1999/02/22-rdf-syntax-ns#"
   xmlns:svg="http://www.w3.org/2000/svg"
   xmlns="http://www.w3.org/2000/svg"
   xmlns:sodipodi="http://sodipodi.sourceforge.net/DTD/sodipodi-0.dtd"
   xmlns:inkscape="http://www.inkscape.org/namespaces/inkscape"
   width="100"
   height="100"
   viewBox="0 0 100 100"
   version="1.1"
   id="svg22"
   sodipodi:docname="a-woman.svg"
   inkscape:export-filename="/home/kai/Development/proceed/docs/static/images/persons/a-woman.png"
   inkscape:export-xdpi="491.51999"
   inkscape:export-ydpi="491.51999"
   inkscape:version="0.92.3 (2405546, 2018-03-11)">
  <metadata
     id="metadata28">
    <rdf:RDF>
      <cc:Work
         rdf:about="">
        <dc:format>image/svg+xml</dc:format>
        <dc:type
           rdf:resource="http://purl.org/dc/dcmitype/StillImage" />
        <dc:title></dc:title>
      </cc:Work>
    </rdf:RDF>
  </metadata>
  <defs
     id="defs26" />
  <sodipodi:namedview
     pagecolor="#d0d1d2"
     bordercolor="#666666"
     borderopacity="1"
     objecttolerance="10"
     gridtolerance="10"
     guidetolerance="10"
     inkscape:pageopacity="1"
     inkscape:pageshadow="2"
     inkscape:window-width="640"
     inkscape:window-height="480"
     id="namedview24"
     showgrid="false"
     inkscape:pagecheckerboard="true"
     inkscape:zoom="6.675088"
     inkscape:cx="62.753813"
     inkscape:cy="47.587528"
     inkscape:current-layer="svg22" />
  <g
     id="g20"
     transform="matrix(1.5142246,0,0,1.5142246,-25.738371,-25.636324)">
    <g
       transform="matrix(0.69,0,0,0.69,15.5,15.5)"
       style="fill:#000000"
       id="g18">
      <svg
         version="1.1"
         x="0px"
         y="0px"
         viewBox="0 0 100 100"
         style="fill:#000000"
         xml:space="preserve"
         id="svg16"
         width="100%"
         height="100%"><g
           id="g14"><g
             i:extraneous="self"
             id="g12"><g
               id="g10"><circle
                 cx="41.700001"
                 cy="34.5"
                 r="4"
                 id="circle2" /><circle
                 cx="58.200001"
                 cy="34.5"
                 r="4"
                 id="circle4" /><path
                 d="m 50,52.7 c 3.9,0 7.6,-1.8 9.5,-4.8 0.7,-1 0.4,-2.4 -0.7,-3.1 -1,-0.7 -2.4,-0.4 -3.1,0.7 -1.1,1.7 -3.3,2.7 -5.7,2.7 -2.4,0 -4.6,-1 -5.7,-2.7 -0.7,-1 -2.1,-1.3 -3.1,-0.7 -1,0.7 -1.3,2.1 -0.7,3.1 1.9,3 5.5,4.8 9.5,4.8 z"
                 id="path6"
                 inkscape:connector-curvature="0" /><path
                 d="m 72.9,65.8 h -9 L 62.5,61 c 0.5,-0.4 1,-0.8 1.5,-1.2 5.3,0.8 10.1,1.8 11.9,-0.5 2.6,-3.3 2.7,-9.2 2,-17.2 1.5,-1.4 2.3,-3.6 2.3,-6.6 0,-3.6 -0.8,-6.1 -2.6,-7.6 C 77.3,27.6 76.8,27.3 76.3,27.1 74,4.9 58.8,2.5 50,2.5 41.2,2.5 26,4.9 23.6,27 c -0.5,0.3 -1,0.6 -1.3,0.9 -1.7,1.6 -2.6,4 -2.6,7.6 0,3 0.8,5.2 2.3,6.6 -0.7,8 -0.6,13.9 2,17.2 1.8,2.3 6.6,1.3 11.9,0.5 0.5,0.4 1,0.8 1.5,1.2 L 36,65.8 h -9 c -9.2,0 -16.7,7.5 -16.7,16.7 v 9 c 0,3.3 2.7,6 6,6 h 67.2 c 3.3,0 6,-2.7 6,-6 v -9 C 89.6,73.2 82.1,65.8 72.9,65.8 Z M 29.6,42.1 c -0.1,-1.4 -1.2,-2.5 -2.6,-2.6 -1.7,-0.2 -2.9,-0.3 -2.9,-4 0,-2.9 0.7,-4 1.1,-4.3 0.1,-0.1 0.2,-0.2 0.5,-0.3 0.2,0.9 0.9,1.6 1.8,1.7 1.2,0.2 2.4,-0.6 2.6,-1.8 C 31,25.5 32,21.6 33.7,18.7 L 35,24 c 0.2,0.9 1,1.5 1.9,1.5 h 26.3 c 0.9,0 1.7,-0.6 1.9,-1.5 l 1.2,-5.3 c 1.7,2.9 2.7,6.9 3.6,12.1 0.2,1.1 1.1,1.8 2.2,1.8 0.1,0 0.3,0 0.4,0 0.9,-0.2 1.6,-0.9 1.8,-1.7 0.2,0.1 0.4,0.2 0.5,0.3 0.4,0.4 1.1,1.4 1.1,4.3 0,3.7 -1.2,3.8 -2.9,4 -1.4,0.1 -2.5,1.2 -2.6,2.5 -0.6,5.7 -4.2,10.9 -10.7,15.5 -5.7,4 -13.7,4 -19.4,0 C 33.8,52.9 30.2,47.7 29.6,42.1 Z m 28.8,28.7 -5.9,4 c -1.5,1 -3.5,1 -5,0 l -5.9,-4 C 40.4,70 39.8,68.7 40.2,67.4 l 1.3,-4.2 c 2.6,1.2 5.5,1.8 8.5,1.8 3,0 5.9,-0.7 8.5,-1.8 l 1.3,4.2 c 0.4,1.2 -0.2,2.6 -1.4,3.4 z m 26.7,20.7 c 0,0.9 -0.7,1.6 -1.5,1.6 H 16.4 c -0.9,0 -1.6,-0.7 -1.6,-1.6 v -9 c 0,-6.7 5.5,-12.2 12.2,-12.2 h 9 c 0.5,1.7 1.6,3.2 3.1,4.2 l 5.9,4 c 1.5,1 3.2,1.5 5,1.5 1.7,0 3.5,-0.5 5,-1.5 l 5.9,-4 c 1.6,-1.1 2.6,-2.6 3.1,-4.2 h 8.9 c 6.7,0 12.2,5.5 12.2,12.2 z"
                 id="path8"
                 inkscape:connector-curvature="0" /></g></g></g></svg>    </g>
  </g>
</svg>
